# xmcd
#
# Track frame offsets: 
#        150
#        49225
#        85235
#        140995
#        156697
#        180127
#        193982
#        230247
#        240422
#        251185
#
# Disc length: 3558 seconds
#
# Revision: 1
# Processed by: cddbd v1.5.2PL0 Copyright (c) Steve Scherf et al.
# Submitted via: ExactAudioCopy v0.99pb5
#
DISCID=950de40a
DTITLE=Jimi Hendrix - Sunshine Of Your Love
DYEAR=1999
DGENRE=Psychedelic Rock
TTITLE0=Red House
TTITLE1=Woke Up This Morning And Found Myself Dead
TTITLE2=Peoples Peoples aka Bleeding Heart
TTITLE3=Morissons Lament
TTITLE4=Tomorrow Never Knows
TTITLE5=Uranus Rock
TTITLE6=Outside Woman Blues
TTITLE7=Sunshine Of Your Love
TTITLE8=Goodbye Bessie Mae
TTITLE9=Soul Food
EXTD=
EXTT0=
EXTT1=
EXTT2=
EXTT3=
EXTT4=
EXTT5=
EXTT6=
EXTT7=
EXTT8=
EXTT9=
PLAYORDER=
